<svg width="1280" height="720" xmlns="http://www.w3.org/2000/svg" xmlns:xlink="http://www.w3.org/1999/xlink" overflow="hidden"><defs><clipPath id="clip0"><rect x="52" y="269" width="210" height="114"/></clipPath><clipPath id="clip1"><rect x="52" y="269" width="210" height="114"/></clipPath><clipPath id="clip2"><rect x="254" y="269" width="209" height="114"/></clipPath><clipPath id="clip3"><rect x="254" y="269" width="209" height="114"/></clipPath><clipPath id="clip4"><rect x="455" y="269" width="210" height="114"/></clipPath><clipPath id="clip5"><rect x="455" y="269" width="210" height="114"/></clipPath><clipPath id="clip6"><rect x="657" y="269" width="209" height="114"/></clipPath><clipPath id="clip7"><rect x="657" y="269" width="209" height="114"/></clipPath><clipPath id="clip8"><rect x="858" y="269" width="210" height="114"/></clipPath><clipPath id="clip9"><rect x="858" y="269" width="210" height="114"/></clipPath><clipPath id="clip10"><rect x="1060" y="269" width="209" height="114"/></clipPath><clipPath id="clip11"><rect x="1060" y="269" width="209" height="114"/></clipPath></defs><g><rect x="0" y="0" width="1280" height="720" fill="#FFFFFF"/><rect x="53" y="249" width="1174" height="262" fill="#3A3A3A"/><rect x="53" y="293" width="1174" height="175" fill="#6A6A6A"/><path d="M70 380C70 370.059 78.0589 362 88 362L192 362C201.941 362 210 370.059 210 380L210 380C210 389.941 201.941 398 192 398L88 398C78.0589 398 70 389.941 70 380Z" fill="#FFFFFF" fill-rule="evenodd"/><path d="M269 380C269 370.059 277.059 362 287 362L392 362C401.941 362 410 370.059 410 380L410 380C410 389.941 401.941 398 392 398L287 398C277.059 398 269 389.941 269 380Z" fill="#FFFFFF" fill-rule="evenodd"/><path d="M469 380C469 370.059 477.059 362 487 362L592 362C601.941 362 610 370.059 610 380L610 380C610 389.941 601.941 398 592 398L487 398C477.059 398 469 389.941 469 380Z" fill="#FFFFFF" fill-rule="evenodd"/><path d="M1068 380C1068 370.059 1076.06 362 1086 362L1191 362C1200.94 362 1209 370.059 1209 380L1209 380C1209 389.941 1200.94 398 1191 398L1086 398C1076.06 398 1068 389.941 1068 380Z" fill="#FFFFFF" fill-rule="evenodd"/><path d="M669 380C669 370.059 677.059 362 687 362L792 362C801.941 362 810 370.059 810 380L810 380C810 389.941 801.941 398 792 398L687 398C677.059 398 669 389.941 669 380Z" fill="#FFFFFF" fill-rule="evenodd"/><path d="M868 380C868 370.059 876.059 362 886 362L991 362C1000.94 362 1009 370.059 1009 380L1009 380C1009 389.941 1000.94 398 991 398L886 398C876.059 398 868 389.941 868 380Z" fill="#FFFFFF" fill-rule="evenodd"/><g clip-path="url(#clip0)"><g clip-path="url(#clip1)"><g><path d="M207.755 146.322 185.415 91.8141 154.141 82.6551C146.992 94.2715 145.205 109.015 150.79 122.642 150.79 122.642 150.79 122.642 150.79 122.642 132.248 116.164 87.1229 100.75 87.1229 100.526 85.1124 99.8563 82.6551 98.2925 75.9533 98.2925 69.2515 98.2925 64.7837 100.526 64.7837 100.526 64.7837 100.526 18.7649 122.419 15.8608 125.1 12.9567 128.004 11.1696 131.801 11.1696 136.269 11.1696 144.981 18.0948 151.907 26.807 151.907L147.439 151.907C155.257 151.907 161.512 146.322 162.853 139.173 174.916 149.449 192.117 152.8 207.755 146.322ZM26.807 142.971C23.0094 142.971 20.1053 140.067 20.1053 136.269 20.1053 132.471 23.0094 129.567 26.807 129.567 30.6047 129.567 33.5088 132.471 33.5088 136.269 33.5088 140.067 30.6047 142.971 26.807 142.971ZM75.9533 120.632C72.1556 120.632 69.2515 117.728 69.2515 113.93 69.2515 110.132 72.1556 107.228 75.9533 107.228 79.751 107.228 82.6551 110.132 82.6551 113.93 82.6551 117.728 79.751 120.632 75.9533 120.632ZM147.439 142.971C143.641 142.971 140.737 140.067 140.737 136.269 140.737 132.471 143.641 129.567 147.439 129.567 151.236 129.567 154.141 132.471 154.141 136.269 154.141 140.067 151.236 142.971 147.439 142.971Z" fill="#FFC000" transform="matrix(1 0 0 1.06052 47.5436 219.198)"/><path d="M64.7837 91.8141C65.2305 91.5908 70.3685 90.2504 77.2937 90.2504 81.5381 90.2504 85.5592 90.6972 89.3568 91.5908L89.8036 91.5908 137.61 108.122 131.578 81.7615C130.908 78.8574 128.227 76.6235 125.1 76.6235L84.2188 75.9533 73.496 52.4971C71.2621 47.5825 66.5708 44.455 61.2094 44.455L37.9767 44.455C33.062 44.455 29.041 48.4761 29.041 53.3907L29.041 75.7299 19.6585 81.9849C17.2012 83.5486 15.6374 86.4527 15.6374 89.3568L15.4141 115.047C21.4456 111.696 34.4024 105.441 63.4434 92.2609L64.7837 91.8141ZM37.9767 53.6141 61.2094 53.6141C62.9966 53.6141 64.5603 54.7311 65.4539 56.2948L73.7194 75.9533 37.9767 75.9533 37.9767 53.6141Z" fill="#FFC000" transform="matrix(1 0 0 1.06052 47.5436 219.198)"/></g></g></g><g clip-path="url(#clip2)"><g clip-path="url(#clip3)"><g><path d="M206.765 145.625 184.532 91.3769 153.407 82.2615C146.292 93.8225 144.513 108.496 150.072 122.058 150.072 122.058 150.072 122.058 150.072 122.058 131.618 115.611 86.708 100.27 86.708 100.048 84.7071 99.3808 82.2615 97.8245 75.5916 97.8245 68.9218 97.8245 64.4752 100.048 64.4752 100.048 64.4752 100.048 18.6756 121.836 15.7853 124.504 12.895 127.394 11.1164 131.174 11.1164 135.62 11.1164 144.291 18.0086 151.183 26.6794 151.183L146.737 151.183C154.518 151.183 160.743 145.625 162.077 138.511 174.083 148.738 191.202 152.073 206.765 145.625ZM26.6794 142.29C22.8998 142.29 20.0095 139.4 20.0095 135.62 20.0095 131.841 22.8998 128.95 26.6794 128.95 30.459 128.95 33.3492 131.841 33.3492 135.62 33.3492 139.4 30.459 142.29 26.6794 142.29ZM75.5916 120.057C71.812 120.057 68.9218 117.167 68.9218 113.387 68.9218 109.608 71.812 106.718 75.5916 106.718 79.3712 106.718 82.2615 109.608 82.2615 113.387 82.2615 117.167 79.3712 120.057 75.5916 120.057ZM146.737 142.29C142.957 142.29 140.067 139.4 140.067 135.62 140.067 131.841 142.957 128.95 146.737 128.95 150.516 128.95 153.407 131.841 153.407 135.62 153.407 139.4 150.516 142.29 146.737 142.29Z" fill="#FFC000" transform="matrix(1 0 0 1.0656 249.565 219.198)"/><path d="M64.4752 91.3769C64.9199 91.1546 70.0334 89.8206 76.9256 89.8206 81.1498 89.8206 85.1517 90.2653 88.9313 91.1546L89.376 91.1546 136.954 107.607 130.951 81.3722C130.284 78.4819 127.616 76.2586 124.504 76.2586L83.8178 75.5916 73.146 52.2472C70.9227 47.3559 66.2538 44.2433 60.918 44.2433L37.7958 44.2433C32.9046 44.2433 28.9027 48.2452 28.9027 53.1365L28.9027 75.3693 19.5649 81.5945C17.1193 83.1508 15.563 86.0411 15.563 88.9313L15.3407 114.499C21.3435 111.164 34.2386 104.939 63.1412 91.8216L64.4752 91.3769ZM37.7958 53.3588 60.918 53.3588C62.6966 53.3588 64.2529 54.4704 65.1422 56.0267L73.3683 75.5916 37.7958 75.5916 37.7958 53.3588Z" fill="#FFC000" transform="matrix(1 0 0 1.0656 249.565 219.198)"/></g></g></g><g clip-path="url(#clip4)"><g clip-path="url(#clip5)"><g><path d="M207.755 146.322 185.415 91.8141 154.141 82.6551C146.992 94.2715 145.205 109.015 150.79 122.642 150.79 122.642 150.79 122.642 150.79 122.642 132.248 116.164 87.1229 100.75 87.1229 100.526 85.1124 99.8563 82.6551 98.2925 75.9533 98.2925 69.2515 98.2925 64.7837 100.526 64.7837 100.526 64.7837 100.526 18.7649 122.419 15.8608 125.1 12.9567 128.004 11.1696 131.801 11.1696 136.269 11.1696 144.981 18.0948 151.907 26.807 151.907L147.439 151.907C155.257 151.907 161.512 146.322 162.853 139.173 174.916 149.449 192.117 152.8 207.755 146.322ZM26.807 142.971C23.0094 142.971 20.1053 140.067 20.1053 136.269 20.1053 132.471 23.0094 129.567 26.807 129.567 30.6047 129.567 33.5088 132.471 33.5088 136.269 33.5088 140.067 30.6047 142.971 26.807 142.971ZM75.9533 120.632C72.1556 120.632 69.2515 117.728 69.2515 113.93 69.2515 110.132 72.1556 107.228 75.9533 107.228 79.751 107.228 82.6551 110.132 82.6551 113.93 82.6551 117.728 79.751 120.632 75.9533 120.632ZM147.439 142.971C143.641 142.971 140.737 140.067 140.737 136.269 140.737 132.471 143.641 129.567 147.439 129.567 151.236 129.567 154.141 132.471 154.141 136.269 154.141 140.067 151.236 142.971 147.439 142.971Z" fill="#FFC000" transform="matrix(1 0 0 1.06052 450.544 219.198)"/><path d="M64.7837 91.8141C65.2305 91.5908 70.3685 90.2504 77.2937 90.2504 81.5381 90.2504 85.5592 90.6972 89.3568 91.5908L89.8036 91.5908 137.61 108.122 131.578 81.7615C130.908 78.8574 128.227 76.6235 125.1 76.6235L84.2188 75.9533 73.496 52.4971C71.2621 47.5825 66.5708 44.455 61.2094 44.455L37.9767 44.455C33.062 44.455 29.041 48.4761 29.041 53.3907L29.041 75.7299 19.6585 81.9849C17.2012 83.5486 15.6374 86.4527 15.6374 89.3568L15.4141 115.047C21.4456 111.696 34.4024 105.441 63.4434 92.2609L64.7837 91.8141ZM37.9767 53.6141 61.2094 53.6141C62.9966 53.6141 64.5603 54.7311 65.4539 56.2948L73.7194 75.9533 37.9767 75.9533 37.9767 53.6141Z" fill="#FFC000" transform="matrix(1 0 0 1.06052 450.544 219.198)"/></g></g></g><g clip-path="url(#clip6)"><g clip-path="url(#clip7)"><g><path d="M206.765 145.625 184.532 91.3769 153.407 82.2615C146.292 93.8225 144.513 108.496 150.072 122.058 150.072 122.058 150.072 122.058 150.072 122.058 131.618 115.611 86.708 100.27 86.708 100.048 84.7071 99.3808 82.2615 97.8245 75.5916 97.8245 68.9218 97.8245 64.4752 100.048 64.4752 100.048 64.4752 100.048 18.6756 121.836 15.7853 124.504 12.895 127.394 11.1164 131.174 11.1164 135.62 11.1164 144.291 18.0086 151.183 26.6794 151.183L146.737 151.183C154.518 151.183 160.743 145.625 162.077 138.511 174.083 148.738 191.202 152.073 206.765 145.625ZM26.6794 142.29C22.8998 142.29 20.0095 139.4 20.0095 135.62 20.0095 131.841 22.8998 128.95 26.6794 128.95 30.459 128.95 33.3492 131.841 33.3492 135.62 33.3492 139.4 30.459 142.29 26.6794 142.29ZM75.5916 120.057C71.812 120.057 68.9218 117.167 68.9218 113.387 68.9218 109.608 71.812 106.718 75.5916 106.718 79.3712 106.718 82.2615 109.608 82.2615 113.387 82.2615 117.167 79.3712 120.057 75.5916 120.057ZM146.737 142.29C142.957 142.29 140.067 139.4 140.067 135.62 140.067 131.841 142.957 128.95 146.737 128.95 150.516 128.95 153.407 131.841 153.407 135.62 153.407 139.4 150.516 142.29 146.737 142.29Z" fill="#FFC000" transform="matrix(1 0 0 1.0656 652.565 219.198)"/><path d="M64.4752 91.3769C64.9199 91.1546 70.0334 89.8206 76.9256 89.8206 81.1498 89.8206 85.1517 90.2653 88.9313 91.1546L89.376 91.1546 136.954 107.607 130.951 81.3722C130.284 78.4819 127.616 76.2586 124.504 76.2586L83.8178 75.5916 73.146 52.2472C70.9227 47.3559 66.2538 44.2433 60.918 44.2433L37.7958 44.2433C32.9046 44.2433 28.9027 48.2452 28.9027 53.1365L28.9027 75.3693 19.5649 81.5945C17.1193 83.1508 15.563 86.0411 15.563 88.9313L15.3407 114.499C21.3435 111.164 34.2386 104.939 63.1412 91.8216L64.4752 91.3769ZM37.7958 53.3588 60.918 53.3588C62.6966 53.3588 64.2529 54.4704 65.1422 56.0267L73.3683 75.5916 37.7958 75.5916 37.7958 53.3588Z" fill="#FFC000" transform="matrix(1 0 0 1.0656 652.565 219.198)"/></g></g></g><g clip-path="url(#clip8)"><g clip-path="url(#clip9)"><g><path d="M207.755 146.322 185.415 91.8141 154.141 82.6551C146.992 94.2715 145.205 109.015 150.79 122.642 150.79 122.642 150.79 122.642 150.79 122.642 132.248 116.164 87.1229 100.75 87.1229 100.526 85.1124 99.8563 82.6551 98.2925 75.9533 98.2925 69.2515 98.2925 64.7837 100.526 64.7837 100.526 64.7837 100.526 18.7649 122.419 15.8608 125.1 12.9567 128.004 11.1696 131.801 11.1696 136.269 11.1696 144.981 18.0948 151.907 26.807 151.907L147.439 151.907C155.257 151.907 161.512 146.322 162.853 139.173 174.916 149.449 192.117 152.8 207.755 146.322ZM26.807 142.971C23.0094 142.971 20.1053 140.067 20.1053 136.269 20.1053 132.471 23.0094 129.567 26.807 129.567 30.6047 129.567 33.5088 132.471 33.5088 136.269 33.5088 140.067 30.6047 142.971 26.807 142.971ZM75.9533 120.632C72.1556 120.632 69.2515 117.728 69.2515 113.93 69.2515 110.132 72.1556 107.228 75.9533 107.228 79.751 107.228 82.6551 110.132 82.6551 113.93 82.6551 117.728 79.751 120.632 75.9533 120.632ZM147.439 142.971C143.641 142.971 140.737 140.067 140.737 136.269 140.737 132.471 143.641 129.567 147.439 129.567 151.236 129.567 154.141 132.471 154.141 136.269 154.141 140.067 151.236 142.971 147.439 142.971Z" fill="#FFC000" transform="matrix(1 0 0 1.06052 853.544 219.198)"/><path d="M64.7837 91.8141C65.2305 91.5908 70.3685 90.2504 77.2937 90.2504 81.5381 90.2504 85.5592 90.6972 89.3568 91.5908L89.8036 91.5908 137.61 108.122 131.578 81.7615C130.908 78.8574 128.227 76.6235 125.1 76.6235L84.2188 75.9533 73.496 52.4971C71.2621 47.5825 66.5708 44.455 61.2094 44.455L37.9767 44.455C33.062 44.455 29.041 48.4761 29.041 53.3907L29.041 75.7299 19.6585 81.9849C17.2012 83.5486 15.6374 86.4527 15.6374 89.3568L15.4141 115.047C21.4456 111.696 34.4024 105.441 63.4434 92.2609L64.7837 91.8141ZM37.9767 53.6141 61.2094 53.6141C62.9966 53.6141 64.5603 54.7311 65.4539 56.2948L73.7194 75.9533 37.9767 75.9533 37.9767 53.6141Z" fill="#FFC000" transform="matrix(1 0 0 1.06052 853.544 219.198)"/></g></g></g><g clip-path="url(#clip10)"><g clip-path="url(#clip11)"><g><path d="M206.765 145.625 184.532 91.3769 153.407 82.2615C146.292 93.8225 144.513 108.496 150.072 122.058 150.072 122.058 150.072 122.058 150.072 122.058 131.618 115.611 86.708 100.27 86.708 100.048 84.7071 99.3808 82.2615 97.8245 75.5916 97.8245 68.9218 97.8245 64.4752 100.048 64.4752 100.048 64.4752 100.048 18.6756 121.836 15.7853 124.504 12.895 127.394 11.1164 131.174 11.1164 135.62 11.1164 144.291 18.0086 151.183 26.6794 151.183L146.737 151.183C154.518 151.183 160.743 145.625 162.077 138.511 174.083 148.738 191.202 152.073 206.765 145.625ZM26.6794 142.29C22.8998 142.29 20.0095 139.4 20.0095 135.62 20.0095 131.841 22.8998 128.95 26.6794 128.95 30.459 128.95 33.3492 131.841 33.3492 135.62 33.3492 139.4 30.459 142.29 26.6794 142.29ZM75.5916 120.057C71.812 120.057 68.9218 117.167 68.9218 113.387 68.9218 109.608 71.812 106.718 75.5916 106.718 79.3712 106.718 82.2615 109.608 82.2615 113.387 82.2615 117.167 79.3712 120.057 75.5916 120.057ZM146.737 142.29C142.957 142.29 140.067 139.4 140.067 135.62 140.067 131.841 142.957 128.95 146.737 128.95 150.516 128.95 153.407 131.841 153.407 135.62 153.407 139.4 150.516 142.29 146.737 142.29Z" fill="#FFC000" transform="matrix(1 0 0 1.0656 1055.56 219.198)"/><path d="M64.4752 91.3769C64.9199 91.1546 70.0334 89.8206 76.9256 89.8206 81.1498 89.8206 85.1517 90.2653 88.9313 91.1546L89.376 91.1546 136.954 107.607 130.951 81.3722C130.284 78.4819 127.616 76.2586 124.504 76.2586L83.8178 75.5916 73.146 52.2472C70.9227 47.3559 66.2538 44.2433 60.918 44.2433L37.7958 44.2433C32.9046 44.2433 28.9027 48.2452 28.9027 53.1365L28.9027 75.3693 19.5649 81.5945C17.1193 83.1508 15.563 86.0411 15.563 88.9313L15.3407 114.499C21.3435 111.164 34.2386 104.939 63.1412 91.8216L64.4752 91.3769ZM37.7958 53.3588 60.918 53.3588C62.6966 53.3588 64.2529 54.4704 65.1422 56.0267L73.3683 75.5916 37.7958 75.5916 37.7958 53.3588Z" fill="#FFC000" transform="matrix(1 0 0 1.0656 1055.56 219.198)"/></g></g></g></g></svg>