<svg width="1280" height="720" xmlns="http://www.w3.org/2000/svg" xmlns:xlink="http://www.w3.org/1999/xlink" overflow="hidden"><defs><clipPath id="clip0"><rect x="52" y="269" width="210" height="114"/></clipPath><clipPath id="clip1"><rect x="52" y="269" width="210" height="114"/></clipPath></defs><g><rect x="0" y="0" width="1280" height="720" fill="#FFFFFF"/><rect x="53" y="249" width="1174" height="262" fill="#3A3A3A"/><rect x="53" y="293" width="1174" height="175" fill="#6A6A6A"/><path d="M70 380C70 370.059 78.0589 362 88 362L192 362C201.941 362 210 370.059 210 380L210 380C210 389.941 201.941 398 192 398L88 398C78.0589 398 70 389.941 70 380Z" fill="#FFFFFF" fill-rule="evenodd"/><path d="M269 380C269 370.059 277.059 362 287 362L392 362C401.941 362 410 370.059 410 380L410 380C410 389.941 401.941 398 392 398L287 398C277.059 398 269 389.941 269 380Z" fill="#FFFFFF" fill-rule="evenodd"/><path d="M469 380C469 370.059 477.059 362 487 362L592 362C601.941 362 610 370.059 610 380L610 380C610 389.941 601.941 398 592 398L487 398C477.059 398 469 389.941 469 380Z" fill="#FFFFFF" fill-rule="evenodd"/><path d="M1068 380C1068 370.059 1076.06 362 1086 362L1191 362C1200.94 362 1209 370.059 1209 380L1209 380C1209 389.941 1200.94 398 1191 398L1086 398C1076.06 398 1068 389.941 1068 380Z" fill="#FFFFFF" fill-rule="evenodd"/><path d="M669 380C669 370.059 677.059 362 687 362L792 362C801.941 362 810 370.059 810 380L810 380C810 389.941 801.941 398 792 398L687 398C677.059 398 669 389.941 669 380Z" fill="#FFFFFF" fill-rule="evenodd"/><path d="M868 380C868 370.059 876.059 362 886 362L991 362C1000.94 362 1009 370.059 1009 380L1009 380C1009 389.941 1000.94 398 991 398L886 398C876.059 398 868 389.941 868 380Z" fill="#FFFFFF" fill-rule="evenodd"/><g clip-path="url(#clip0)"><g clip-path="url(#clip1)"><g><path d="M207.755 146.322 185.415 91.8141 154.141 82.6551C146.992 94.2715 145.205 109.015 150.79 122.642 150.79 122.642 150.79 122.642 150.79 122.642 132.248 116.164 87.1229 100.75 87.1229 100.526 85.1124 99.8563 82.6551 98.2925 75.9533 98.2925 69.2515 98.2925 64.7837 100.526 64.7837 100.526 64.7837 100.526 18.7649 122.419 15.8608 125.1 12.9567 128.004 11.1696 131.801 11.1696 136.269 11.1696 144.981 18.0948 151.907 26.807 151.907L147.439 151.907C155.257 151.907 161.512 146.322 162.853 139.173 174.916 149.449 192.117 152.8 207.755 146.322ZM26.807 142.971C23.0094 142.971 20.1053 140.067 20.1053 136.269 20.1053 132.471 23.0094 129.567 26.807 129.567 30.6047 129.567 33.5088 132.471 33.5088 136.269 33.5088 140.067 30.6047 142.971 26.807 142.971ZM75.9533 120.632C72.1556 120.632 69.2515 117.728 69.2515 113.93 69.2515 110.132 72.1556 107.228 75.9533 107.228 79.751 107.228 82.6551 110.132 82.6551 113.93 82.6551 117.728 79.751 120.632 75.9533 120.632ZM147.439 142.971C143.641 142.971 140.737 140.067 140.737 136.269 140.737 132.471 143.641 129.567 147.439 129.567 151.236 129.567 154.141 132.471 154.141 136.269 154.141 140.067 151.236 142.971 147.439 142.971Z" fill="#FFC000" transform="matrix(1 0 0 1.06052 47.5436 219.198)"/><path d="M64.7837 91.8141C65.2305 91.5908 70.3685 90.2504 77.2937 90.2504 81.5381 90.2504 85.5592 90.6972 89.3568 91.5908L89.8036 91.5908 137.61 108.122 131.578 81.7615C130.908 78.8574 128.227 76.6235 125.1 76.6235L84.2188 75.9533 73.496 52.4971C71.2621 47.5825 66.5708 44.455 61.2094 44.455L37.9767 44.455C33.062 44.455 29.041 48.4761 29.041 53.3907L29.041 75.7299 19.6585 81.9849C17.2012 83.5486 15.6374 86.4527 15.6374 89.3568L15.4141 115.047C21.4456 111.696 34.4024 105.441 63.4434 92.2609L64.7837 91.8141ZM37.9767 53.6141 61.2094 53.6141C62.9966 53.6141 64.5603 54.7311 65.4539 56.2948L73.7194 75.9533 37.9767 75.9533 37.9767 53.6141Z" fill="#FFC000" transform="matrix(1 0 0 1.06052 47.5436 219.198)"/></g></g></g></g></svg>