<svg width="3604" height="851" xmlns="http://www.w3.org/2000/svg" xmlns:xlink="http://www.w3.org/1999/xlink" xml:space="preserve" overflow="hidden"><defs><clipPath id="clip0"><rect x="398" y="812" width="3604" height="851"/></clipPath><clipPath id="clip1"><rect x="3158" y="811" width="844" height="459"/></clipPath><clipPath id="clip2"><rect x="3158" y="811" width="844" height="459"/></clipPath></defs><g clip-path="url(#clip0)" transform="translate(-398 -812)"><rect x="398" y="860" width="3596" height="803" fill="#3A3A3A"/><rect x="398" y="994" width="3596" height="535" fill="#6A6A6A"/><path d="M448 1262C448 1231.62 472.624 1207 503 1207L824 1207C854.376 1207 879 1231.62 879 1262L879 1262C879 1292.38 854.376 1317 824 1317L503 1317C472.624 1317 448 1292.38 448 1262Z" fill="#FFFFFF" fill-rule="evenodd"/><path d="M1060 1262C1060 1231.62 1084.62 1207 1115 1207L1436 1207C1466.38 1207 1491 1231.62 1491 1262L1491 1262C1491 1292.38 1466.38 1317 1436 1317L1115 1317C1084.62 1317 1060 1292.38 1060 1262Z" fill="#FFFFFF" fill-rule="evenodd"/><path d="M1672 1262C1672 1231.62 1696.62 1207 1727 1207L2048 1207C2078.38 1207 2103 1231.62 2103 1262L2103 1262C2103 1292.38 2078.38 1317 2048 1317L1727 1317C1696.62 1317 1672 1292.38 1672 1262Z" fill="#FFFFFF" fill-rule="evenodd"/><path d="M3508 1262C3508 1231.62 3532.62 1207 3563 1207L3884 1207C3914.38 1207 3939 1231.62 3939 1262L3939 1262C3939 1292.38 3914.38 1317 3884 1317L3563 1317C3532.62 1317 3508 1292.38 3508 1262Z" fill="#FFFFFF" fill-rule="evenodd"/><path d="M2284 1262C2284 1231.62 2308.62 1207 2339 1207L2660 1207C2690.38 1207 2715 1231.62 2715 1262L2715 1262C2715 1292.38 2690.38 1317 2660 1317L2339 1317C2308.62 1317 2284 1292.38 2284 1262Z" fill="#FFFFFF" fill-rule="evenodd"/><path d="M2896 1262C2896 1231.62 2920.62 1207 2951 1207L3272 1207C3302.38 1207 3327 1231.62 3327 1262L3327 1262C3327 1292.38 3302.38 1317 3272 1317L2951 1317C2920.62 1317 2896 1292.38 2896 1262Z" fill="#FFFFFF" fill-rule="evenodd"/><g clip-path="url(#clip1)"><g clip-path="url(#clip2)"><g><path d="M834.976 588.074 745.193 369.005 619.498 332.195C590.768 378.881 583.585 438.138 606.031 492.905 606.031 492.905 606.031 492.905 606.031 492.905 531.511 466.868 350.151 404.918 350.151 404.021 342.071 401.327 332.195 395.042 305.26 395.042 278.325 395.042 260.369 404.021 260.369 404.021 260.369 404.021 75.4172 492.007 63.7455 502.781 52.0738 514.453 44.8912 529.716 44.8912 547.672 44.8912 582.687 72.7237 610.52 107.739 610.52L592.563 610.52C623.987 610.52 649.126 588.074 654.513 559.344 702.996 600.644 772.128 614.111 834.976 588.074ZM107.739 574.607C92.4758 574.607 80.8041 562.935 80.8041 547.672 80.8041 532.409 92.4758 520.738 107.739 520.738 123.002 520.738 134.673 532.409 134.673 547.672 134.673 562.935 123.002 574.607 107.739 574.607ZM305.26 484.825C289.997 484.825 278.325 473.153 278.325 457.89 278.325 442.627 289.997 430.955 305.26 430.955 320.523 430.955 332.195 442.627 332.195 457.89 332.195 473.153 320.523 484.825 305.26 484.825ZM592.563 574.607C577.3 574.607 565.629 562.935 565.629 547.672 565.629 532.409 577.3 520.738 592.563 520.738 607.826 520.738 619.498 532.409 619.498 547.672 619.498 562.935 607.826 574.607 592.563 574.607Z" fill="#FFC000" transform="matrix(1 0 0 1.05781 3140.09 612.356)"/><path d="M260.369 369.005C262.164 368.108 282.814 362.721 310.647 362.721 327.706 362.721 343.866 364.516 359.129 368.108L360.925 368.108 553.059 434.547 528.818 328.603C526.124 316.932 515.351 307.953 502.781 307.953L338.479 305.26 295.384 210.988C286.406 191.236 267.551 178.667 246.004 178.667L152.63 178.667C132.878 178.667 116.717 194.828 116.717 214.58L116.717 304.362 79.0085 329.501C69.1324 335.786 62.8476 347.458 62.8476 359.129L61.9498 462.379C86.191 448.912 138.265 423.773 254.982 370.801L260.369 369.005ZM152.63 215.478 246.004 215.478C253.186 215.478 259.471 219.967 263.062 226.251L296.282 305.26 152.63 305.26 152.63 215.478Z" fill="#FFC000" transform="matrix(1 0 0 1.05781 3140.09 612.356)"/></g></g></g></g></svg>