<svg width="10611" height="2506" xmlns="http://www.w3.org/2000/svg" xmlns:xlink="http://www.w3.org/1999/xlink" xml:space="preserve" overflow="hidden"><defs><clipPath id="clip0"><rect x="481" y="2108" width="10611" height="2506"/></clipPath><clipPath id="clip1"><rect x="8607" y="2107" width="2486" height="1346"/></clipPath><clipPath id="clip2"><rect x="8607" y="2107" width="2486" height="1346"/></clipPath></defs><g clip-path="url(#clip0)" transform="translate(-481 -2108)"><rect x="481" y="2250" width="10587" height="2364" fill="#3A3A3A"/><rect x="481" y="2644" width="10587" height="1576" fill="#6A6A6A"/><path d="M628 3432.5C628 3342.75 700.754 3270 790.5 3270L1735.5 3270C1825.25 3270 1898 3342.75 1898 3432.5L1898 3432.5C1898 3522.25 1825.25 3595 1735.5 3595L790.5 3595C700.754 3595 628 3522.25 628 3432.5Z" fill="#FFFFFF" fill-rule="evenodd"/><path d="M2429 3432.5C2429 3342.75 2501.75 3270 2591.5 3270L3537.5 3270C3627.25 3270 3700 3342.75 3700 3432.5L3700 3432.5C3700 3522.25 3627.25 3595 3537.5 3595L2591.5 3595C2501.75 3595 2429 3522.25 2429 3432.5Z" fill="#FFFFFF" fill-rule="evenodd"/><path d="M4231 3432.5C4231 3342.75 4303.75 3270 4393.5 3270L5339.5 3270C5429.25 3270 5502 3342.75 5502 3432.5L5502 3432.5C5502 3522.25 5429.25 3595 5339.5 3595L4393.5 3595C4303.75 3595 4231 3522.25 4231 3432.5Z" fill="#FFFFFF" fill-rule="evenodd"/><path d="M9637 3432.5C9637 3342.75 9709.75 3270 9799.5 3270L10745.5 3270C10835.2 3270 10908 3342.75 10908 3432.5L10908 3432.5C10908 3522.25 10835.2 3595 10745.5 3595L9799.5 3595C9709.75 3595 9637 3522.25 9637 3432.5Z" fill="#FFFFFF" fill-rule="evenodd"/><path d="M6033 3432.5C6033 3342.75 6105.75 3270 6195.5 3270L7141.5 3270C7231.25 3270 7304 3342.75 7304 3432.5L7304 3432.5C7304 3522.25 7231.25 3595 7141.5 3595L6195.5 3595C6105.75 3595 6033 3522.25 6033 3432.5Z" fill="#FFFFFF" fill-rule="evenodd"/><path d="M7835 3432.5C7835 3342.75 7907.75 3270 7997.5 3270L8943.5 3270C9033.25 3270 9106 3342.75 9106 3432.5L9106 3432.5C9106 3522.25 9033.25 3595 8943.5 3595L7997.5 3595C7907.75 3595 7835 3522.25 7835 3432.5Z" fill="#FFFFFF" fill-rule="evenodd"/><g clip-path="url(#clip1)"><g clip-path="url(#clip2)"><g><path d="M2458.43 1731.47 2194.08 1086.47 1824 978.085C1739.41 1115.55 1718.26 1290.01 1784.34 1451.27 1784.34 1451.27 1784.34 1451.27 1784.34 1451.27 1564.94 1374.61 1030.95 1192.21 1030.95 1189.56 1007.16 1181.63 978.085 1163.13 898.781 1163.13 819.477 1163.13 766.607 1189.56 766.607 1189.56 766.607 1189.56 222.052 1448.62 187.687 1480.34 153.321 1514.71 132.174 1559.65 132.174 1612.52 132.174 1715.61 214.121 1797.56 317.217 1797.56L1744.69 1797.56C1837.21 1797.56 1911.23 1731.47 1927.09 1646.88 2069.84 1768.48 2273.39 1808.14 2458.43 1731.47ZM317.217 1691.82C272.278 1691.82 237.913 1657.46 237.913 1612.52 237.913 1567.58 272.278 1533.21 317.217 1533.21 362.156 1533.21 396.521 1567.58 396.521 1612.52 396.521 1657.46 362.156 1691.82 317.217 1691.82ZM898.781 1427.48C853.842 1427.48 819.477 1393.11 819.477 1348.17 819.477 1303.23 853.842 1268.87 898.781 1268.87 943.72 1268.87 978.085 1303.23 978.085 1348.17 978.085 1393.11 943.72 1427.48 898.781 1427.48ZM1744.69 1691.82C1699.75 1691.82 1665.39 1657.46 1665.39 1612.52 1665.39 1567.58 1699.75 1533.21 1744.69 1533.21 1789.63 1533.21 1824 1567.58 1824 1612.52 1824 1657.46 1789.63 1691.82 1744.69 1691.82Z" fill="#FFC000" transform="matrix(1 0 0 1.05738 8554.27 1520.43)"/><path d="M766.607 1086.47C771.894 1083.82 832.694 1067.96 914.642 1067.96 964.868 1067.96 1012.45 1073.25 1057.39 1083.82L1062.68 1083.82 1628.38 1279.44 1557.01 967.511C1549.08 933.146 1517.35 906.711 1480.34 906.711L996.589 898.781 869.703 621.216C843.268 563.06 787.755 526.051 724.312 526.051L449.39 526.051C391.234 526.051 343.651 573.634 343.651 631.79L343.651 896.137 232.626 970.155C203.547 988.659 185.043 1023.02 185.043 1057.39L182.4 1361.39C253.773 1321.74 407.095 1247.72 750.746 1091.75L766.607 1086.47ZM449.39 634.434 724.312 634.434C745.459 634.434 763.964 647.651 774.538 666.155L872.346 898.781 449.39 898.781 449.39 634.434Z" fill="#FFC000" transform="matrix(1 0 0 1.05738 8554.27 1520.43)"/></g></g></g></g></svg>