<svg width="4043" height="901" xmlns="http://www.w3.org/2000/svg" xmlns:xlink="http://www.w3.org/1999/xlink" xml:space="preserve" overflow="hidden"><defs><clipPath id="clip0"><rect x="183" y="857" width="4043" height="901"/></clipPath><clipPath id="clip1"><rect x="3506" y="926" width="721" height="389"/></clipPath><clipPath id="clip2"><rect x="3506" y="926" width="721" height="389"/></clipPath></defs><g clip-path="url(#clip0)" transform="translate(-183 -857)"><rect x="183" y="857" width="4034" height="901" fill="#3A3A3A"/><rect x="183" y="1007" width="4034" height="601" fill="#6A6A6A"/><path d="M239 1308C239 1273.76 266.758 1246 301 1246L661 1246C695.242 1246 723 1273.76 723 1308L723 1308C723 1342.24 695.242 1370 661 1370L301 1370C266.758 1370 239 1342.24 239 1308Z" fill="#FFFFFF" fill-rule="evenodd"/><path d="M925 1308C925 1273.76 952.758 1246 987 1246L1348 1246C1382.24 1246 1410 1273.76 1410 1308L1410 1308C1410 1342.24 1382.24 1370 1348 1370L987 1370C952.758 1370 925 1342.24 925 1308Z" fill="#FFFFFF" fill-rule="evenodd"/><path d="M1612 1308C1612 1273.76 1639.76 1246 1674 1246L2034 1246C2068.24 1246 2096 1273.76 2096 1308L2096 1308C2096 1342.24 2068.24 1370 2034 1370L1674 1370C1639.76 1370 1612 1342.24 1612 1308Z" fill="#FFFFFF" fill-rule="evenodd"/><path d="M3672 1308C3672 1273.76 3699.76 1246 3734 1246L4094 1246C4128.24 1246 4156 1273.76 4156 1308L4156 1308C4156 1342.24 4128.24 1370 4094 1370L3734 1370C3699.76 1370 3672 1342.24 3672 1308Z" fill="#FFFFFF" fill-rule="evenodd"/><path d="M2299 1308C2299 1273.76 2326.76 1246 2361 1246L2721 1246C2755.24 1246 2783 1273.76 2783 1308L2783 1308C2783 1342.24 2755.24 1370 2721 1370L2361 1370C2326.76 1370 2299 1342.24 2299 1308Z" fill="#FFFFFF" fill-rule="evenodd"/><path d="M2985 1308C2985 1273.76 3012.76 1246 3047 1246L3407 1246C3441.24 1246 3469 1273.76 3469 1308L3469 1308C3469 1342.24 3441.24 1370 3407 1370L3047 1370C3012.76 1370 2985 1342.24 2985 1308Z" fill="#FFFFFF" fill-rule="evenodd"/><g clip-path="url(#clip1)"><g clip-path="url(#clip2)"><g><path d="M711.312 500.978 634.827 314.354 527.748 282.995C503.273 322.768 497.154 373.248 516.275 419.904 516.275 419.904 516.275 419.904 516.275 419.904 452.792 397.723 298.292 344.948 298.292 344.183 291.409 341.889 282.995 336.535 260.05 336.535 237.104 336.535 221.807 344.183 221.807 344.183 221.807 344.183 64.2476 419.139 54.3045 428.317 44.3614 438.26 38.2426 451.263 38.2426 466.56 38.2426 496.389 61.953 520.099 91.7822 520.099L504.802 520.099C531.572 520.099 552.988 500.978 557.577 476.503 598.879 511.686 657.773 523.159 711.312 500.978ZM91.7822 489.505C78.7798 489.505 68.8367 479.562 68.8367 466.56 68.8367 453.557 78.7798 443.614 91.7822 443.614 104.785 443.614 114.728 453.557 114.728 466.56 114.728 479.562 104.785 489.505 91.7822 489.505ZM260.05 413.02C247.047 413.02 237.104 403.077 237.104 390.075 237.104 377.072 247.047 367.129 260.05 367.129 273.052 367.129 282.995 377.072 282.995 390.075 282.995 403.077 273.052 413.02 260.05 413.02ZM504.802 489.505C491.8 489.505 481.857 479.562 481.857 466.56 481.857 453.557 491.8 443.614 504.802 443.614 517.805 443.614 527.748 453.557 527.748 466.56 527.748 479.562 517.805 489.505 504.802 489.505Z" fill="#FFC000" transform="matrix(1 0 0 1.05695 3491.74 756.063)"/><path d="M221.807 314.354C223.337 313.589 240.928 309 264.639 309 279.171 309 292.938 310.53 305.941 313.589L307.471 313.589 471.149 370.188 450.498 279.936C448.203 269.993 439.025 262.344 428.317 262.344L288.349 260.05 251.636 179.74C243.988 162.913 227.926 152.206 209.569 152.206L130.025 152.206C113.198 152.206 99.4308 165.973 99.4308 182.8L99.4308 259.285 67.307 280.701C58.8936 286.055 53.5396 295.998 53.5396 305.941L52.7748 393.899C73.4258 382.426 117.787 361.01 217.218 315.884L221.807 314.354ZM130.025 183.564 209.569 183.564C215.688 183.564 221.042 187.389 224.102 192.743L252.401 260.05 130.025 260.05 130.025 183.564Z" fill="#FFC000" transform="matrix(1 0 0 1.05695 3491.74 756.063)"/></g></g></g></g></svg>