<svg width="6367" height="1418" xmlns="http://www.w3.org/2000/svg" xmlns:xlink="http://www.w3.org/1999/xlink" xml:space="preserve" overflow="hidden"><defs><clipPath id="clip0"><rect x="289" y="1350" width="6367" height="1418"/></clipPath><clipPath id="clip1"><rect x="5523" y="1458" width="1134" height="615"/></clipPath><clipPath id="clip2"><rect x="5523" y="1458" width="1134" height="615"/></clipPath></defs><g clip-path="url(#clip0)" transform="translate(-289 -1350)"><rect x="289" y="1350" width="6352" height="1418" fill="#3A3A3A"/><rect x="289" y="1586" width="6352" height="946" fill="#6A6A6A"/><path d="M377 2059.5C377 2005.65 420.652 1962 474.5 1962L1041.5 1962C1095.35 1962 1139 2005.65 1139 2059.5L1139 2059.5C1139 2113.35 1095.35 2157 1041.5 2157L474.5 2157C420.652 2157 377 2113.35 377 2059.5Z" fill="#FFFFFF" fill-rule="evenodd"/><path d="M1458 2059.5C1458 2005.65 1501.65 1962 1555.5 1962L2122.5 1962C2176.35 1962 2220 2005.65 2220 2059.5L2220 2059.5C2220 2113.35 2176.35 2157 2122.5 2157L1555.5 2157C1501.65 2157 1458 2113.35 1458 2059.5Z" fill="#FFFFFF" fill-rule="evenodd"/><path d="M2539 2059.5C2539 2005.65 2582.65 1962 2636.5 1962L3203.5 1962C3257.35 1962 3301 2005.65 3301 2059.5L3301 2059.5C3301 2113.35 3257.35 2157 3203.5 2157L2636.5 2157C2582.65 2157 2539 2113.35 2539 2059.5Z" fill="#FFFFFF" fill-rule="evenodd"/><path d="M5782 2059.5C5782 2005.65 5825.65 1962 5879.5 1962L6447.5 1962C6501.35 1962 6545 2005.65 6545 2059.5L6545 2059.5C6545 2113.35 6501.35 2157 6447.5 2157L5879.5 2157C5825.65 2157 5782 2113.35 5782 2059.5Z" fill="#FFFFFF" fill-rule="evenodd"/><path d="M3620 2059.5C3620 2005.65 3663.65 1962 3717.5 1962L4284.5 1962C4338.35 1962 4382 2005.65 4382 2059.5L4382 2059.5C4382 2113.35 4338.35 2157 4284.5 2157L3717.5 2157C3663.65 2157 3620 2113.35 3620 2059.5Z" fill="#FFFFFF" fill-rule="evenodd"/><path d="M4701 2059.5C4701 2005.65 4744.65 1962 4798.5 1962L5366.5 1962C5420.35 1962 5464 2005.65 5464 2059.5L5464 2059.5C5464 2113.35 5420.35 2157 5366.5 2157L4798.5 2157C4744.65 2157 4701 2113.35 4701 2059.5Z" fill="#FFFFFF" fill-rule="evenodd"/><g clip-path="url(#clip1)"><g clip-path="url(#clip2)"><g><path d="M1120.89 789.441 1000.36 495.359 831.625 445.944C793.057 508.617 783.415 588.164 813.546 661.684 813.546 661.684 813.546 661.684 813.546 661.684 713.51 626.732 470.049 543.569 470.049 542.364 459.202 538.748 445.944 530.312 409.786 530.312 373.629 530.312 349.524 542.364 349.524 542.364 349.524 542.364 101.241 660.479 85.573 674.942 69.9047 690.61 60.2627 711.1 60.2627 735.205 60.2627 782.21 97.6255 819.572 144.63 819.572L795.467 819.572C837.651 819.572 871.398 789.441 878.63 750.873 943.714 806.315 1036.52 824.393 1120.89 789.441ZM144.63 771.362C124.141 771.362 108.473 755.694 108.473 735.205 108.473 714.715 124.141 699.047 144.63 699.047 165.12 699.047 180.788 714.715 180.788 735.205 180.788 755.694 165.12 771.362 144.63 771.362ZM409.786 650.837C389.297 650.837 373.629 635.169 373.629 614.679 373.629 594.19 389.297 578.522 409.786 578.522 430.276 578.522 445.944 594.19 445.944 614.679 445.944 635.169 430.276 650.837 409.786 650.837ZM795.467 771.362C774.978 771.362 759.31 755.694 759.31 735.205 759.31 714.715 774.978 699.047 795.467 699.047 815.957 699.047 831.625 714.715 831.625 735.205 831.625 755.694 815.957 771.362 795.467 771.362Z" fill="#FFC000" transform="matrix(1 0 0 1.05698 5498.96 1191.21)"/><path d="M349.524 495.359C351.934 494.154 379.655 486.922 417.018 486.922 439.918 486.922 461.612 489.333 482.101 494.154L484.512 494.154 742.436 583.343 709.894 441.123C706.279 425.454 691.816 413.402 674.942 413.402L454.381 409.786 396.528 283.235C384.476 256.719 359.166 239.845 330.239 239.845L204.893 239.845C178.378 239.845 156.683 261.54 156.683 288.056L156.683 408.581 106.062 442.328C92.8045 450.765 84.3677 466.433 84.3677 482.101L83.1625 620.706C115.704 602.627 185.609 568.88 342.292 497.77L349.524 495.359ZM204.893 289.261 330.239 289.261C339.882 289.261 348.318 295.287 353.139 303.724L397.734 409.786 204.893 409.786 204.893 289.261Z" fill="#FFC000" transform="matrix(1 0 0 1.05698 5498.96 1191.21)"/></g></g></g></g></svg>