<svg width="10611" height="2364" xmlns="http://www.w3.org/2000/svg" xmlns:xlink="http://www.w3.org/1999/xlink" xml:space="preserve" overflow="hidden"><defs><clipPath id="clip0"><rect x="481" y="2250" width="10611" height="2364"/></clipPath><clipPath id="clip1"><rect x="9203" y="2431" width="1890" height="1022"/></clipPath><clipPath id="clip2"><rect x="9203" y="2431" width="1890" height="1022"/></clipPath></defs><g clip-path="url(#clip0)" transform="translate(-481 -2250)"><rect x="481" y="2250" width="10587" height="2364" fill="#3A3A3A"/><rect x="481" y="2644" width="10587" height="1576" fill="#6A6A6A"/><path d="M628 3432.5C628 3342.75 700.754 3270 790.5 3270L1735.5 3270C1825.25 3270 1898 3342.75 1898 3432.5L1898 3432.5C1898 3522.25 1825.25 3595 1735.5 3595L790.5 3595C700.754 3595 628 3522.25 628 3432.5Z" fill="#FFFFFF" fill-rule="evenodd"/><path d="M2429 3432.5C2429 3342.75 2501.75 3270 2591.5 3270L3537.5 3270C3627.25 3270 3700 3342.75 3700 3432.5L3700 3432.5C3700 3522.25 3627.25 3595 3537.5 3595L2591.5 3595C2501.75 3595 2429 3522.25 2429 3432.5Z" fill="#FFFFFF" fill-rule="evenodd"/><path d="M4231 3432.5C4231 3342.75 4303.75 3270 4393.5 3270L5339.5 3270C5429.25 3270 5502 3342.75 5502 3432.5L5502 3432.5C5502 3522.25 5429.25 3595 5339.5 3595L4393.5 3595C4303.75 3595 4231 3522.25 4231 3432.5Z" fill="#FFFFFF" fill-rule="evenodd"/><path d="M9637 3432.5C9637 3342.75 9709.75 3270 9799.5 3270L10745.5 3270C10835.2 3270 10908 3342.75 10908 3432.5L10908 3432.5C10908 3522.25 10835.2 3595 10745.5 3595L9799.5 3595C9709.75 3595 9637 3522.25 9637 3432.5Z" fill="#FFFFFF" fill-rule="evenodd"/><path d="M6033 3432.5C6033 3342.75 6105.75 3270 6195.5 3270L7141.5 3270C7231.25 3270 7304 3342.75 7304 3432.5L7304 3432.5C7304 3522.25 7231.25 3595 7141.5 3595L6195.5 3595C6105.75 3595 6033 3522.25 6033 3432.5Z" fill="#FFFFFF" fill-rule="evenodd"/><path d="M7835 3432.5C7835 3342.75 7907.75 3270 7997.5 3270L8943.5 3270C9033.25 3270 9106 3342.75 9106 3432.5L9106 3432.5C9106 3522.25 9033.25 3595 8943.5 3595L7997.5 3595C7907.75 3595 7835 3522.25 7835 3432.5Z" fill="#FFFFFF" fill-rule="evenodd"/><g clip-path="url(#clip1)"><g clip-path="url(#clip2)"><g><path d="M1867.81 1315.5 1666.97 825.453 1385.8 743.109C1321.53 847.545 1305.46 980.1 1355.67 1102.61 1355.67 1102.61 1355.67 1102.61 1355.67 1102.61 1188.97 1044.37 783.277 905.789 783.277 903.781 765.201 897.755 743.109 883.697 682.857 883.697 622.604 883.697 582.436 903.781 582.436 903.781 582.436 903.781 168.706 1100.6 142.596 1124.7 116.487 1150.81 100.42 1184.96 100.42 1225.12 100.42 1303.45 162.681 1365.71 241.008 1365.71L1325.54 1365.71C1395.84 1365.71 1452.07 1315.5 1464.12 1251.23 1572.58 1343.62 1727.23 1373.75 1867.81 1315.5ZM241.008 1285.38C206.865 1285.38 180.756 1259.27 180.756 1225.12 180.756 1190.98 206.865 1164.87 241.008 1164.87 275.151 1164.87 301.26 1190.98 301.26 1225.12 301.26 1259.27 275.151 1285.38 241.008 1285.38ZM682.857 1084.54C648.714 1084.54 622.604 1058.43 622.604 1024.28 622.604 990.142 648.714 964.033 682.857 964.033 716.999 964.033 743.109 990.142 743.109 1024.28 743.109 1058.43 716.999 1084.54 682.857 1084.54ZM1325.54 1285.38C1291.4 1285.38 1265.29 1259.27 1265.29 1225.12 1265.29 1190.98 1291.4 1164.87 1325.54 1164.87 1359.69 1164.87 1385.8 1190.98 1385.8 1225.12 1385.8 1259.27 1359.69 1285.38 1325.54 1285.38Z" fill="#FFC000" transform="matrix(1 0 0 1.05751 9163.93 1984.53)"/><path d="M582.436 825.453C586.453 823.445 632.646 811.394 694.907 811.394 733.067 811.394 769.218 815.411 803.361 823.445L807.377 823.445 1237.18 972.066 1182.95 735.075C1176.92 708.966 1152.82 688.882 1124.7 688.882L757.167 682.857 660.764 471.974C640.68 427.789 598.504 399.672 550.302 399.672L341.428 399.672C297.243 399.672 261.092 435.823 261.092 480.008L261.092 680.848 176.739 737.083C154.647 751.142 140.588 777.251 140.588 803.361L138.58 1034.33C192.807 1004.2 309.294 947.966 570.386 829.47L582.436 825.453ZM341.428 482.016 550.302 482.016C566.369 482.016 580.428 492.058 588.462 506.117L662.772 682.857 341.428 682.857 341.428 482.016Z" fill="#FFC000" transform="matrix(1 0 0 1.05751 9163.93 1984.53)"/></g></g></g></g></svg>