<svg width="3604" height="993" xmlns="http://www.w3.org/2000/svg" xmlns:xlink="http://www.w3.org/1999/xlink" xml:space="preserve" overflow="hidden"><defs><clipPath id="clip0"><rect x="398" y="670" width="3604" height="993"/></clipPath><clipPath id="clip1"><rect x="1672" y="669" width="2330" height="536"/></clipPath><clipPath id="clip2"><rect x="1672" y="669" width="2330" height="536"/></clipPath></defs><g clip-path="url(#clip0)" transform="translate(-398 -670)"><rect x="398" y="860" width="3596" height="803" fill="#3A3A3A"/><rect x="398" y="994" width="3596" height="535" fill="#6A6A6A"/><path d="M448 1262C448 1231.62 472.624 1207 503 1207L824 1207C854.376 1207 879 1231.62 879 1262L879 1262C879 1292.38 854.376 1317 824 1317L503 1317C472.624 1317 448 1292.38 448 1262Z" fill="#FFFFFF" fill-rule="evenodd"/><path d="M1060 1262C1060 1231.62 1084.62 1207 1115 1207L1436 1207C1466.38 1207 1491 1231.62 1491 1262L1491 1262C1491 1292.38 1466.38 1317 1436 1317L1115 1317C1084.62 1317 1060 1292.38 1060 1262Z" fill="#FFFFFF" fill-rule="evenodd"/><path d="M1672 1262C1672 1231.62 1696.62 1207 1727 1207L2048 1207C2078.38 1207 2103 1231.62 2103 1262L2103 1262C2103 1292.38 2078.38 1317 2048 1317L1727 1317C1696.62 1317 1672 1292.38 1672 1262Z" fill="#FFFFFF" fill-rule="evenodd"/><path d="M3508 1262C3508 1231.62 3532.62 1207 3563 1207L3884 1207C3914.38 1207 3939 1231.62 3939 1262L3939 1262C3939 1292.38 3914.38 1317 3884 1317L3563 1317C3532.62 1317 3508 1292.38 3508 1262Z" fill="#FFFFFF" fill-rule="evenodd"/><path d="M2284 1262C2284 1231.62 2308.62 1207 2339 1207L2660 1207C2690.38 1207 2715 1231.62 2715 1262L2715 1262C2715 1292.38 2690.38 1317 2660 1317L2339 1317C2308.62 1317 2284 1292.38 2284 1262Z" fill="#FFFFFF" fill-rule="evenodd"/><path d="M2896 1262C2896 1231.62 2920.62 1207 2951 1207L3272 1207C3302.38 1207 3327 1231.62 3327 1262L3327 1262C3327 1292.38 3302.38 1317 3272 1317L2951 1317C2920.62 1317 2896 1292.38 2896 1262Z" fill="#FFFFFF" fill-rule="evenodd"/><g clip-path="url(#clip1)"><g clip-path="url(#clip2)"><g><path d="M1034 728.246 922.815 456.96 767.16 411.376C731.581 469.19 722.687 542.571 750.482 610.392 750.482 610.392 750.482 610.392 750.482 610.392 658.201 578.149 433.612 501.433 433.612 500.322 423.606 496.986 411.376 489.203 378.021 489.203 344.666 489.203 322.429 500.322 322.429 500.322 322.429 500.322 93.3934 609.281 78.9396 622.622 64.4859 637.076 55.5913 655.977 55.5913 678.214 55.5913 721.575 90.0579 756.042 133.419 756.042L733.805 756.042C772.719 756.042 803.85 728.246 810.521 692.667 870.56 743.811 956.17 760.489 1034 728.246ZM133.419 711.568C114.518 711.568 100.064 697.115 100.064 678.214 100.064 659.313 114.518 644.859 133.419 644.859 152.32 644.859 166.774 659.313 166.774 678.214 166.774 697.115 152.32 711.568 133.419 711.568ZM378.021 600.386C359.12 600.386 344.666 585.932 344.666 567.031 344.666 548.13 359.12 533.676 378.021 533.676 396.922 533.676 411.376 548.13 411.376 567.031 411.376 585.932 396.922 600.386 378.021 600.386ZM733.805 711.568C714.904 711.568 700.45 697.115 700.45 678.214 700.45 659.313 714.904 644.859 733.805 644.859 752.706 644.859 767.16 659.313 767.16 678.214 767.16 697.115 752.706 711.568 733.805 711.568Z" fill="#FFC000" transform="matrix(2.2293 0 0 1 1622.56 436.282)"/><path d="M322.429 456.96C324.653 455.849 350.225 449.178 384.692 449.178 405.816 449.178 425.829 451.401 444.73 455.849L446.954 455.849 684.885 538.124 654.865 406.928C651.53 392.474 638.188 381.356 622.622 381.356L419.158 378.021 365.791 261.279C354.672 236.819 331.324 221.253 304.64 221.253L189.01 221.253C164.55 221.253 144.537 241.266 144.537 265.726L144.537 376.909 97.8407 408.04C85.6106 415.823 77.8278 430.277 77.8278 444.73L76.716 572.59C106.735 555.913 171.221 524.782 315.759 459.184L322.429 456.96ZM189.01 266.838 304.64 266.838C313.535 266.838 321.318 272.397 325.765 280.18L366.902 378.021 189.01 378.021 189.01 266.838Z" fill="#FFC000" transform="matrix(2.2293 0 0 1 1622.56 436.282)"/></g></g></g></g></svg>