<svg width="3596" height="968" xmlns="http://www.w3.org/2000/svg" xmlns:xlink="http://www.w3.org/1999/xlink" xml:space="preserve" overflow="hidden"><defs><clipPath id="clip0"><rect x="398" y="695" width="3596" height="968"/></clipPath><clipPath id="clip1"><rect x="2137" y="695" width="943" height="510"/></clipPath><clipPath id="clip2"><rect x="2137" y="695" width="943" height="510"/></clipPath></defs><g clip-path="url(#clip0)" transform="translate(-398 -695)"><rect x="398" y="860" width="3596" height="803" fill="#3A3A3A"/><rect x="398" y="994" width="3596" height="535" fill="#6A6A6A"/><path d="M448 1262C448 1231.62 472.624 1207 503 1207L824 1207C854.376 1207 879 1231.62 879 1262L879 1262C879 1292.38 854.376 1317 824 1317L503 1317C472.624 1317 448 1292.38 448 1262Z" fill="#FFFFFF" fill-rule="evenodd"/><path d="M1060 1262C1060 1231.62 1084.62 1207 1115 1207L1436 1207C1466.38 1207 1491 1231.62 1491 1262L1491 1262C1491 1292.38 1466.38 1317 1436 1317L1115 1317C1084.62 1317 1060 1292.38 1060 1262Z" fill="#FFFFFF" fill-rule="evenodd"/><path d="M1672 1262C1672 1231.62 1696.62 1207 1727 1207L2048 1207C2078.38 1207 2103 1231.62 2103 1262L2103 1262C2103 1292.38 2078.38 1317 2048 1317L1727 1317C1696.62 1317 1672 1292.38 1672 1262Z" fill="#FFFFFF" fill-rule="evenodd"/><path d="M3508 1262C3508 1231.62 3532.62 1207 3563 1207L3884 1207C3914.38 1207 3939 1231.62 3939 1262L3939 1262C3939 1292.38 3914.38 1317 3884 1317L3563 1317C3532.62 1317 3508 1292.38 3508 1262Z" fill="#FFFFFF" fill-rule="evenodd"/><path d="M2284 1262C2284 1231.62 2308.62 1207 2339 1207L2660 1207C2690.38 1207 2715 1231.62 2715 1262L2715 1262C2715 1292.38 2690.38 1317 2660 1317L2339 1317C2308.62 1317 2284 1292.38 2284 1262Z" fill="#FFFFFF" fill-rule="evenodd"/><path d="M2896 1262C2896 1231.62 2920.62 1207 2951 1207L3272 1207C3302.38 1207 3327 1231.62 3327 1262L3327 1262C3327 1292.38 3302.38 1317 3272 1317L2951 1317C2920.62 1317 2896 1292.38 2896 1262Z" fill="#FFFFFF" fill-rule="evenodd"/><g clip-path="url(#clip1)"><g clip-path="url(#clip2)"><g><path d="M932.917 657.055 832.604 412.289 692.164 371.161C660.064 423.324 652.039 489.531 677.117 550.722 677.117 550.722 677.117 550.722 677.117 550.722 593.857 521.631 391.223 452.415 391.223 451.412 382.195 448.402 371.161 441.38 341.066 441.38 310.972 441.38 290.91 451.412 290.91 451.412 290.91 451.412 84.2635 549.719 71.2227 561.757 58.1819 574.797 50.1568 591.851 50.1568 611.913 50.1568 651.036 81.2541 682.133 120.376 682.133L662.07 682.133C697.18 682.133 725.268 657.055 731.287 624.954 785.456 671.099 862.698 686.146 932.917 657.055ZM120.376 642.008C103.323 642.008 90.2823 628.967 90.2823 611.913 90.2823 594.86 103.323 581.819 120.376 581.819 137.43 581.819 150.471 594.86 150.471 611.913 150.471 628.967 137.43 642.008 120.376 642.008ZM341.066 541.694C324.013 541.694 310.972 528.653 310.972 511.6 310.972 494.546 324.013 481.506 341.066 481.506 358.12 481.506 371.161 494.546 371.161 511.6 371.161 528.653 358.12 541.694 341.066 541.694ZM662.07 642.008C645.017 642.008 631.976 628.967 631.976 611.913 631.976 594.86 645.017 581.819 662.07 581.819 679.124 581.819 692.164 594.86 692.164 611.913 692.164 628.967 679.124 642.008 662.07 642.008Z" fill="#FFC000" transform="matrix(1 0 0 1.05656 2116.99 472.203)"/><path d="M290.91 412.289C292.916 411.286 315.988 405.267 347.085 405.267 366.145 405.267 384.201 407.273 401.255 411.286L403.261 411.286 617.932 485.518 590.848 367.148C587.838 354.107 575.8 344.076 561.757 344.076L378.183 341.066 330.032 235.737C320.001 213.668 298.935 199.624 274.859 199.624L170.533 199.624C148.464 199.624 130.408 217.681 130.408 239.75L130.408 340.063 88.276 368.151C77.2415 375.173 70.2196 388.214 70.2196 401.255L69.2164 516.615C96.3011 501.568 154.483 473.481 284.891 414.295L290.91 412.289ZM170.533 240.753 274.859 240.753C282.885 240.753 289.907 245.768 293.919 252.79L331.035 341.066 170.533 341.066 170.533 240.753Z" fill="#FFC000" transform="matrix(1 0 0 1.05656 2116.99 472.203)"/></g></g></g></g></svg>