<svg width="96" height="96" xmlns="http://www.w3.org/2000/svg" xmlns:xlink="http://www.w3.org/1999/xlink" xml:space="preserve" overflow="hidden"><g transform="translate(-592 -312)"><path d="M622.73 343 615.27 350.4C606.86 358.81 604.86 373.05 611.32 382.66 610.06 384.112 610.216 386.31 611.668 387.569 612.936 388.669 614.808 388.707 616.12 387.66 625.72 394.82 640.55 392.96 649.21 384.3L656.67 376.85C654.14 372.5 649.17 365.85 641.43 358.14 633.69 350.43 627.08 345.47 622.73 343Z"/><path d="M672.13 361.86C672.13 361.76 672.06 361.65 672.02 361.54 669.92 356.54 665.53 349.54 666.75 343.69L666.75 343.69C666.946 342.506 666.546 341.301 665.68 340.47L665 339.72C667.8 337.63 670 336.41 671.33 336.42L671.33 330.42C668.6 330.42 664.88 332.35 660.72 335.48L659.16 333.92C658.331 333.052 657.123 332.654 655.94 332.86L655.94 332.86C650.1 334.08 643.07 329.69 638.09 327.59L637.77 327.48C631.79 325.276 625.155 328.337 622.951 334.318 622.493 335.561 622.252 336.875 622.24 338.2 630.72 342 642.51 353.6 644.24 355.35 645.97 357.1 657.6 368.89 661.39 377.35 667.758 377.301 672.88 372.099 672.831 365.732 672.821 364.411 672.584 363.101 672.13 361.86Z"/></g></svg>